<svg width="300" height="376" viewBox="0 0 300 376" fill="none" xmlns="http://www.w3.org/2000/svg">
<path d="M150 0C67.5 0 0 67.68 0 150.4C0 251.92 131.25 366.6 136.875 372.24C140.625 374.12 146.25 376 150 376C153.75 376 159.375 374.12 163.125 372.24C168.75 366.6 300 251.92 300 150.4C300 67.68 232.5 0 150 0ZM150 332.76C110.625 295.16 37.5 214.32 37.5 150.4C37.5 88.36 88.125 37.6 150 37.6C211.875 37.6 262.5 88.36 262.5 150.4C262.5 212.44 189.375 295.16 150 332.76ZM150 0C108.75 0 0 109.04 0 150.4C0 191.76 108.75 354.453 150 354.453C191.25 354.453 281.914 191.76 281.914 150.4C281.914 109.04 191.25 0 150 0ZM150 188C129.375 188 112.5 171.08 112.5 150.4C112.5 129.72 129.375 112.8 150 112.8C170.625 112.8 187.5 129.72 187.5 150.4C187.5 171.08 170.625 188 150 188Z" fill="white"/>
</svg>
